<?xml version="1.0" encoding="utf-8"?>
<!-- Generator: Adobe Illustrator 21.1.0, SVG Export Plug-In . SVG Version: 6.00 Build 0)  -->
<svg version="1.1" id="Layer_1" xmlns="http://www.w3.org/2000/svg" xmlns:xlink="http://www.w3.org/1999/xlink" x="0px" y="0px"
	 viewBox="0 0 60 28" style="enable-background:new 0 0 60 28;" xml:space="preserve">
<style type="text/css">
	.st0{fill:#FFFFFF;}
</style>
<path class="st0" d="M49.4,13.5c0,0,0-0.1,0-0.1c0,0,0,0,0-0.1c0,0,0-0.1,0-0.1c0-0.1-0.1-0.1-0.1-0.1c0,0,0,0-0.1-0.1
	c0,0-0.1-0.1-0.1-0.1c0,0,0,0-0.1,0c-0.1,0-0.2-0.1-0.3-0.1H37.4c-2.2-5,3.3-11.4,3.3-11.5C41,1.1,41,0.7,40.8,0.4
	c-0.2-0.3-0.5-0.4-0.9-0.3c-0.1,0-5.5,1.9-8.3,2.6c-3.3,0.8-6.8-2.4-6.8-2.4c-0.2-0.2-0.4-0.2-0.7-0.2c-0.2,0.1-0.4,0.2-0.5,0.4
	c-1.9,4.6-0.4,9.5,0.8,12.3h-0.9c-0.1,0-0.2,0-0.2,0l-12.2,3.9c0,0,0,0,0,0c0,0-0.1,0-0.1,0.1c0,0-0.1,0.1-0.1,0.1
	c0,0-0.1,0.1-0.1,0.1c0,0-0.1,0.1-0.1,0.1c0,0,0,0.1,0,0.1c0,0.1,0,0.1,0,0.2c0,0,0,0,0,0.1v9.7c0,0.4,0.3,0.8,0.8,0.8H42
	c0.1,0,0.2,0,0.3-0.1c0,0,0.1,0,0.1-0.1c0,0,0.1,0,0.1-0.1l6.7-6.1c0.2-0.1,0.2-0.3,0.2-0.6L49.4,13.5
	C49.4,13.5,49.4,13.5,49.4,13.5z M24.7,2.1c1.4,1,4.3,2.8,7.3,2.1c1.7-0.4,4.3-1.2,6.1-1.8c-1.6,2.4-3.7,6.6-2.3,10.5
	c0.1,0.4,0.3,0.8,0.5,1.2h-9.6c-0.1-0.3-0.4-0.7-0.6-1.2C25.1,10.6,23.5,6.2,24.7,2.1z M23.7,14.3h1.5c0.3,0.5,0.4,0.8,0.5,0.8
	c0.1,0.2,0.4,0.4,0.6,0.4h11.4c0.3,0,0.6-0.2,0.7-0.4c0.1-0.2,0.1-0.5-0.1-0.8h7.5l-4.1,2.4H16.2L23.7,14.3z M12.1,18.2h29.1v8.2
	H12.1V18.2z M47.9,20.7l-5.2,4.7v-7.6l5.2-3V20.7z"/>
</svg>
